# xmcd CD database file
#
# Track frame offsets:
#	183
#	17578
#	32950
#	50718
#	59620
#	71725
#	88790
#	103233
#	120615
#	139823
#	161203
#
# Disc length: 2263 seconds
#
# Revision: 0
# Processed by: cddbd v1.5.2PL0 Copyright (c) Steve Scherf et al.
# Submitted via: CDex 1.70beta2
#
DISCID=a608d50b
DTITLE=Hot Club The Zigan - Adagio
DYEAR=1900
DGENRE=Jazz
TTITLE0=Adagio
TTITLE1=Days of wine and roses
TTITLE2=I remember Menscholo
TTITLE3=Rigo, Rigo
TTITLE4=Paganini Improvisationen
TTITLE5=Wispering
TTITLE6=Sweet Geogia Brown
TTITLE7=Mer ham bansch baschabangare
TTITLE8=No moon at all
TTITLE9=I get around much any more
TTITLE10=Die Lerche
EXTD=
EXTT0=
EXTT1=
EXTT2=
EXTT3=
EXTT4=
EXTT5=
EXTT6=
EXTT7=
EXTT8=
EXTT9=
EXTT10=
PLAYORDER=
